<svg width="500" height="500" viewBox="0 0 500 500" fill="none" xmlns="http://www.w3.org/2000/svg">
<g clip-path="url(#clip0_225_442)">
<path d="M93.5309 64.1344C85.5194 66.0486 77.7205 72.075 73.183 79.732C69.2127 86.5383 68.9291 89.7287 69.1418 125.532C69.3545 156.94 69.4254 157.933 70.8434 159.847C73.6084 163.605 75.8772 164.739 80.3438 164.739C84.8104 164.739 87.0791 163.605 89.8442 159.847C91.2621 157.933 91.333 156.87 91.6875 125.107C92.042 95.4006 92.1838 92.2102 93.3182 90.4377C96.225 85.9711 95.1616 86.042 131.107 85.6875C162.87 85.333 163.933 85.2621 165.847 83.8441C169.605 81.0791 170.739 78.8104 170.739 74.3438C170.739 69.8772 169.605 67.6084 165.847 64.8434C163.933 63.4254 163.011 63.3545 130.823 63.2127C104.095 63.1418 96.934 63.2836 93.5309 64.1344Z" fill="#394150"/>
<path d="M336.642 63.9926C329.977 66.8994 327.85 75.9035 332.53 81.5045C336.074 85.6875 336.074 85.6875 370.46 85.6875C400.308 85.6875 402.01 85.7584 404.137 87.1055C409.1 90.0832 408.887 88.807 409.313 125.107C409.667 156.87 409.738 157.933 411.156 159.847C413.921 163.605 416.19 164.739 420.656 164.739C425.123 164.739 427.392 163.605 430.157 159.847C431.575 157.933 431.646 156.94 431.858 125.532C432.071 89.7287 431.787 86.5383 427.746 79.6611C425.052 75.0527 419.309 69.31 415.055 67.0412C408.178 63.2836 405.342 63 370.673 63.0709C345.717 63.0709 338.272 63.2836 336.642 63.9926Z" fill="#394150"/>
<path d="M138.906 109.509C130.894 111.424 122.883 117.592 118.629 125.107C114.659 132.055 114.375 134.537 114.375 170.766C114.375 206.995 114.659 209.476 118.629 216.424C121.252 221.033 126.499 226.279 131.107 228.902C137.984 232.873 140.607 233.156 176.482 233.156C195.554 233.156 210.726 232.873 212.924 232.447C221.503 230.817 230.436 224.365 234.902 216.495C238.873 209.476 239.156 206.995 239.156 170.766C239.156 134.537 238.873 132.055 234.902 125.107C230.365 117.166 221.503 110.644 212.995 109.084C210.726 108.659 195.554 108.375 176.128 108.446C150.108 108.446 142.167 108.729 138.906 109.509ZM211.577 132.693C216.611 136.025 216.54 135.458 216.327 171.616C216.114 203.095 216.043 204.017 214.625 206.002C211.364 210.469 211.506 210.469 176.766 210.469C141.6 210.469 141.954 210.54 138.693 205.577L137.062 203.166V170.837C137.062 139.854 137.133 138.436 138.48 136.167C139.26 134.891 140.891 133.26 142.167 132.48C144.436 131.133 145.854 131.063 176.837 131.063H209.166L211.577 132.693Z" fill="#394150"/>
<path d="M166.485 154.743C163.579 156.019 160.601 159.635 160.034 162.541C159.821 163.888 159.75 168.497 159.892 172.751C160.105 181.259 160.743 182.818 164.997 185.938C166.769 187.285 167.974 187.427 176.766 187.427C187.471 187.427 188.606 187.072 191.938 182.535C193.285 180.762 193.427 179.557 193.427 170.766C193.427 161.974 193.285 160.769 191.938 158.996C188.677 154.601 187.33 154.104 177.616 153.892C171.165 153.821 167.974 154.034 166.485 154.743Z" fill="#394150"/>
<path d="M263.545 266.478C266.098 261.727 270.352 258.041 275.315 256.481C276.307 256.197 288.573 255.985 302.61 256.055C326.007 256.197 328.347 256.339 330.615 257.544C334.089 259.388 337.563 262.791 339.336 266.123C340.825 268.817 340.787 269.727 341 290.5V292H318.563V278.53H301.547H284.531V292H262.199C262.208 270.723 262.333 268.632 263.545 266.478Z" fill="#394150"/>
<path d="M324.376 375.378C319.272 370.627 318.917 369.351 318.704 351.414L318.514 337H341.25V346.593V357.937H352.594H363.938V346.593V337H386.249C386.271 339.662 386.271 342.818 386.271 346.593C386.271 365.664 386.129 367.721 384.923 369.989C383.08 373.463 379.677 376.937 376.345 378.71C373.651 380.199 372.658 380.27 352.594 380.27C329.481 380.27 329.552 380.27 324.376 375.378Z" fill="#394150"/>
<path d="M73.2539 409.338C69.2836 402.39 69 399.696 69 364.885L69.0001 337H92V363.5C92.3545 393.206 92.1838 396.789 93.3182 398.562C96.225 403.028 95.1615 402.957 131.107 403.312C162.87 403.666 163.933 403.737 165.847 405.155C169.605 407.92 170.739 410.189 170.739 414.656C170.739 419.122 169.605 421.391 165.847 424.156C163.933 425.574 162.94 425.645 131.532 425.858C95.7287 426.07 92.5383 425.787 85.732 421.816C81.0527 419.051 75.8062 413.805 73.2539 409.338Z" fill="#394150"/>
<path d="M404.874 401.448C409.312 398.208 409.313 398.208 409.313 364.176C409.313 351.621 409.422 342.461 409.624 337H431.858C432.024 341.728 431.764 349.698 431.858 363.609C432.071 399.554 431.858 402.178 427.746 409.338C425.265 413.734 418.529 420.257 414.417 422.384C407.682 425.787 404.562 426.07 369.609 425.858C338.06 425.645 337.067 425.574 335.153 424.156C331.395 421.391 330.261 419.122 330.261 414.656C330.261 410.189 331.395 407.92 335.153 405.155C337.067 403.737 338.13 403.667 369.964 403.312C401.797 402.958 402.861 402.887 404.846 401.469L404.874 401.448Z" fill="#394150"/>
<path d="M159.721 248.911C163.598 246.993 167.123 245.878 171.035 245.25C174.665 244.692 181.855 245.11 185.697 246.087C192.182 247.726 198.104 251.038 202.826 255.676C212.694 265.349 216.245 279.163 212.602 292H196.597C197.445 290.325 198.076 288.538 198.456 286.675C199.549 281.445 198.949 277.016 196.518 272.1C193.733 266.451 187.918 261.883 181.75 260.453C178.895 259.791 173.819 259.791 171 260.453C163.034 262.371 156.126 269.45 154.434 277.505C153.356 282.58 154.143 287.649 156.344 292H140.254C139.924 290.851 139.645 289.679 139.42 288.489C138.785 285.246 138.891 278.063 139.596 274.75C142.098 263.313 149.288 254.037 159.721 248.911Z" fill="#394150"/>
<path d="M126.304 384.677C125.999 383.602 125.931 381.586 126.067 378.765C126.888 360.07 139.714 343.74 158 336.961L194.883 337C210.671 342.676 222.368 355.356 226.185 371.554C226.83 374.197 227 375.943 227 379.929C227 384.766 226.966 384.945 225.981 386.871C223.196 392.022 217.525 392.425 214.502 387.678C213.483 386.11 213.11 384.453 212.6 379.661C212.159 375.048 210.631 371.285 207.642 367.299C202.65 360.626 194.805 355.879 185.397 353.774C181.084 352.833 172.05 352.833 167.737 353.774C152.76 357.088 141.893 367.344 140.534 379.392C140.331 381.139 140.127 383.154 140.025 383.915C139.957 384.722 139.414 386.155 138.87 387.185C135.508 393.276 128.07 391.798 126.304 384.677Z" fill="#394150"/>
<path d="M280.384 162.893C275.984 167.138 274 169.106 274 169.311C274 169.439 275.933 172.2 278.273 175.448L280.384 162.893ZM280.384 162.893L282.037 161.308M280.384 162.893L282.037 161.308M282.037 161.308L283.563 162.356M282.037 161.308L283.563 162.356M283.563 162.356C296.635 171.587 305.129 177.493 305.384 177.519L283.563 162.356ZM283.563 162.356L283.563 162.356L283.563 162.356ZM355.736 125.168L355.737 125.166L358.408 123.325L358.934 122.963L359.573 122.961L366.77 122.935H366.777H374H379.444L375.369 126.546L373.882 127.864C373.879 127.866 373.877 127.868 373.875 127.87C366.409 134.596 356.93 144.981 348.413 155.857C336.65 170.887 320.808 194.432 310.477 212.279L310.472 212.287C309.706 213.596 308.994 214.796 308.461 215.673C308.196 216.109 307.968 216.477 307.796 216.743C307.713 216.872 307.629 217 307.553 217.106C307.519 217.153 307.459 217.235 307.385 217.321C307.353 217.358 307.274 217.449 307.16 217.548C307.106 217.596 306.994 217.69 306.836 217.782C306.723 217.848 306.338 218.065 305.79 218.065C305.098 218.065 304.629 217.716 304.563 217.666C304.56 217.664 304.558 217.662 304.557 217.662C304.414 217.558 304.312 217.457 304.264 217.407C304.159 217.299 304.074 217.192 304.022 217.125C303.91 216.979 303.79 216.804 303.676 216.631C303.445 216.278 303.163 215.814 302.88 215.314C298.989 208.63 288.444 193.089 276.597 176.655L276.597 176.655C275.424 175.026 274.349 173.515 273.565 172.391C273.174 171.831 272.849 171.357 272.619 171.01C272.505 170.84 272.403 170.682 272.325 170.554C272.288 170.493 272.239 170.412 272.194 170.326C272.173 170.285 272.134 170.21 272.096 170.116C272.076 170.069 272.045 169.989 272.016 169.887C271.994 169.811 271.935 169.595 271.935 169.311C271.935 168.93 272.04 168.643 272.085 168.529C272.141 168.388 272.201 168.277 272.241 168.21C272.319 168.075 272.402 167.963 272.457 167.892C272.572 167.742 272.712 167.582 272.852 167.428C273.14 167.113 273.552 166.687 274.08 166.159C275.142 165.095 276.751 163.529 278.95 161.407L278.954 161.403L280.607 159.818L281.821 158.654L283.206 159.606L284.732 160.654L284.743 160.662L284.754 160.669C291.288 165.283 296.675 169.064 300.458 171.694C302.351 173.009 303.837 174.032 304.863 174.727C304.943 174.781 305.02 174.833 305.094 174.883C305.66 174.235 306.384 173.366 307.146 172.402L307.15 172.398C322.27 153.389 340.318 135.821 355.736 125.168ZM307.299 214.611C307.299 214.611 307.297 214.609 307.295 214.606C307.297 214.609 307.299 214.611 307.299 214.611ZM304.196 214.7C304.196 214.699 304.196 214.699 304.196 214.699L304.193 214.704C304.193 214.704 304.194 214.702 304.196 214.7Z" fill="#232175" stroke="#232175" stroke-width="4.13"/>
</g>
<rect x="38" y="305" width="426" height="19" rx="9.5" fill="#232175"/>
<defs>
<clipPath id="clip0_225_442">
<rect width="363" height="363" fill="white" transform="translate(69 63)"/>
</clipPath>
</defs>
</svg>
